<svg xmlns="http://www.w3.org/2000/svg" xmlns:xlink="http://www.w3.org/1999/xlink" viewBox="0 0 500 500"><defs><path id="path-out" d="M457.8 345.5C423.5 410.9 354.9 455.4 276 455.4c-113.4 0-205.4-92-205.4-205.4S162.6 44.6 276 44.6 c55.9 0 106.6 22.3 143.6 58.6l53-7.6C426.8 37.4 355.8 0 276 0C137.9 0 26 111.9 26 250s111.9 250 250 250 c79.8 0 150.8-37.4 196.6-95.5L457.8 345.5z"/></defs><clipPath id="clip-path-out"><use xlink:href="#path-out" overflow="visible"/></clipPath><path class="stroke-out" clip-path="url(#clip-path-out)" fill="none" stroke="#01A093" stroke-width="50" stroke-miterlimit="10" d="M482 345.5 C445.9 423.2 367.2 477 276 477C150.6 477 49 375.4 49 250S150.6 23 276 23c90.6 0 168.8 53.1 205.2 129.9"/><defs><path id="path-in" d="M457.8 345.5C423.5 410.9 354.9 455.4 276 455.4c-113.4 0-205.4-92-205.4-205.4S162.6 44.6 276 44.6 c55.9 0 106.6 22.3 143.6 58.6l5 51.3c-31.4-48.8-86.3-81.1-148.6-81.1c-97.6 0-176.7 79.1-176.7 176.7S178.4 426.7 276 426.7 c62.4 0 117.2-32.3 148.6-81.1L457.8 345.5z"/></defs><clipPath id="clip-path-in"><use xlink:href="#path-in" overflow="visible"/></clipPath><path class="stroke-in" clip-path="url(#clip-path-in)" fill="none" stroke="#007574" stroke-width="30" stroke-miterlimit="10" d="M446.8 335.1 c0 0.1-46.5 105.8-170.8 105.8c-105.4 0-190.9-85.5-190.9-190.9S170.6 59.1 276 59.1c70.6 0 132.3 38.4 165.3 95.4"/><defs><polygon id="polygon-path" points="457.8,154.5 424.6,154.5 419.6,103.2 472.6,95.6"/></defs><clipPath id="clip-polygon-path"><use xlink:href="#polygon-path" overflow="visible"/></clipPath><path class="stroke-polygon" clip-path="url(#clip-polygon-path)" fill="none" stroke="#20ECBE" stroke-width="60" stroke-miterlimit="10" d="M482 345.5 C445.9 423.2 367.2 477 276 477C150.6 477 49 375.4 49 250S150.6 23 276 23c67.6 0 128.3 29.5 169.9 76.4l-0.1 55.1"/></svg>