<svg xmlns="http://www.w3.org/2000/svg" viewBox="0 0 50 50"><path fill="#e4f4f3" d="M42.7 7.1c-5.4 8.3-10.8 16.5-16.2 24.7c-0.5 0.8-0.9 0.9-1.4 0c-1.1-1.8-3.4-2.9-3.8-3.2 c-0.6-0.3-0.4-0.6-0.2-1c0.8-1.5 13.8-16.2 21-23.8c1.1-1.2 3.9-4.2 4.4-3.9C47 0.4 44.1 4.9 42.7 7.1z"/><path fill="#e4f4f3" d="M23 34.6c-1.9-3-4.6-4.4-8.2-4.1c-4.6 0.4-8.1 4.3-6.8 10c0.4 1.7 0.9 4.1-1.8 6.7c-1 1-2.2 1.9-2.2 1.9 c0.7 0.3 5.9 1 8.5 0.8C26.2 48.9 24.4 36.9 23 34.6z M14.3 40.1c-1.3-5.7-3.5 1.6-3.9 0.4c-1.2-4.2 1.4-7.2 4.8-7.7 c2.6-0.4 4.7 0.6 6.2 2.8C13.8 33.8 15.8 46.5 14.3 40.1z"/></svg>