<svg xmlns="http://www.w3.org/2000/svg" viewBox="0 0 50 50"><path fill="#e4f4f3" d="M30.4 1.1H17.9c-1.7 0-3.4 0.2-5.3 0.6C10.6 2.2 8.8 3.1 7 4.6 C4.4 7.1 3.1 9.9 3.1 13c0 2.5 0.9 4.8 2.7 6.7c1.7 2.1 4.3 3.1 7.6 3.2c0.6 0 1.3 0 2-0.1c-0.1 0.3-0.2 0.7-0.4 1.1 c-0.2 0.4-0.2 0.8-0.2 1.4c0 0.9 0.2 1.7 0.6 2.4c0.4 0.7 0.8 1.3 1.2 1.9c-1.5 0-3.3 0.2-5.5 0.5c-2.2 0.4-4.4 1.2-6.4 2.3 c-1.8 1.1-3 2.3-3.7 3.8C0.4 37.5 0 38.8 0 39.9c0 2.4 1.1 4.4 3.3 6.1c2.2 1.8 5.4 2.8 9.8 2.8c5.2-0.1 9.2-1.3 12-3.8 c2.7-2.3 4-5 4-8.1c0-2.1-0.5-3.9-1.5-5.2c-1-1.3-2.1-2.5-3.5-3.6L22 26.5c-0.3-0.3-0.6-0.7-0.9-1.1c-0.4-0.4-0.6-1-0.6-1.6 c0-0.7 0.2-1.3 0.6-1.8c0.3-0.5 0.7-0.9 1-1.3c0.7-0.6 1.3-1.1 1.8-1.7c0.5-0.6 1-1.2 1.5-1.8c0.9-1.3 1.4-3.1 1.5-5.4 c0-1.2-0.1-2.3-0.4-3.2c-0.3-0.9-0.7-1.7-1.1-2.4c-0.5-0.7-0.9-1.3-1.4-1.8C23.5 4 23 3.6 22.6 3.4h3.9L30.4 1.1z M23.5 35.3 c1 1.2 1.6 2.6 1.6 4.2c0 2-0.8 3.6-2.3 4.8c-1.6 1.3-3.8 1.9-6.7 2c-3.3 0-5.9-0.8-7.8-2.2c-2-1.4-3-3.2-3-5.4 c0-1.1 0.2-2.1 0.7-2.9c0.4-0.8 0.9-1.4 1.5-1.9C8 33.3 8.6 33 9.2 32.7c0.6-0.2 1-0.4 1.3-0.6c1.4-0.4 2.7-0.7 4-0.9 c1.3-0.1 2.1-0.2 2.4-0.1c0.5 0 1 0 1.4 0.1C20.7 32.8 22.4 34.2 23.5 35.3z M21.5 16.9c-0.2 0.8-0.5 1.7-1 2.5 c-1.1 1.1-2.5 1.7-4.1 1.8c-1.3 0-2.5-0.4-3.5-1.2c-1-0.8-1.8-1.8-2.5-2.9c-1.3-2.5-2-4.8-2-7.1c0-1.7 0.4-3.3 1.4-4.7 c1.1-1.3 2.5-2 4.2-2.1c1.3 0 2.4 0.4 3.4 1.1c1 0.8 1.7 1.7 2.3 2.9c1.3 2.5 1.9 5 1.9 7.5C21.6 15.3 21.6 16 21.5 16.9z M49.8 20.7L49.8 20.7l-6.6 0v-6.7h-3.8v6.7h-6.6v3.7h0v0.1h6.6v6.6h3.8v-6.6H50v-3.8H49.8z"/></svg>