<svg xmlns="http://www.w3.org/2000/svg" viewBox="0 0 50 50"><path fill="#01a093" d="M25 48c-0.3-1.1-0.5-2.3-0.8-3.4c-0.9-3.5-2-7-3.5-10.3c-0.9-2.1-2.2-4-3.4-5.8c-1.4-2.1-2.9-4.3-4.3-6.5 c-1.5-2.6-2.3-5.4-2.1-8.4c0.2-3 1.3-5.6 3.2-7.9c2.1-2.5 4.7-4.1 7.7-4.8c4.8-1 9.2 0.1 12.8 3.5c2.4 2.2 3.8 4.9 4.3 8.1 c0.4 2.7 0 5.4-1.2 7.9c-1 2.2-2.4 4.2-3.8 6.2c-1.5 2.1-3 4.3-4.2 6.6c-1.2 2.3-2.1 4.7-2.8 7.2c-0.7 2.4-1.3 4.8-1.9 7.2 C25.2 47.7 25.1 47.8 25 48C25.1 48 25 48 25 48z"/><!--<path fill="#005f63" d="M25.5 49.6c0 0 0 0.4-0.5 0.4c-0.3 0-0.4-0.4-0.4-0.4c-0.3-1.5-0.5-3-0.8-4.4c-0.9-4.2-2.2-8.4-4-12.3 c-1.1-2.4-2.7-4.4-4.2-6.6c-1.3-1.9-2.7-3.8-3.8-5.8c-1.2-2.3-1.7-4.8-1.5-7.4c0.4-4.2 2.3-7.6 5.7-10.2C19 0.8 22.4-0.2 26 0 c6.4 0.5 11.9 4.8 13.3 11.2c0.8 3.5 0.2 6.9-1.7 10c-1.1 1.9-2.3 3.7-3.6 5.4c-3.6 4.6-5.7 9.9-7.2 15.5 C26.2 44.6 25.7 47 25.5 49.6z M25 45.5C25 45.5 25 45.5 25 45.5c0.1-0.1 0.1-0.2 0.2-0.3c0.6-2.3 1.2-4.5 1.8-6.8 c0.7-2.3 1.6-4.6 2.7-6.8c1.2-2.2 2.6-4.2 4.1-6.2c1.3-1.9 2.6-3.7 3.6-5.8c1.1-2.3 1.5-4.8 1.1-7.4c-0.5-3-1.8-5.6-4.1-7.6 c-3.6-3.2-7.8-4.3-12.5-3.3c-3 0.6-5.5 2.1-7.5 4.5c-1.8 2.1-2.8 4.6-3.1 7.4c-0.2 2.9 0.5 5.5 2 7.9c1.3 2.1 2.7 4.1 4.1 6.1 c1.2 1.8 2.4 3.5 3.3 5.5c1.4 3.1 2.5 6.4 3.4 9.7C24.5 43.4 24.7 44.5 25 45.5z"/>--><path fill="#e4f4f3" d="M31.3 13.8C31.2 17.3 28.5 20 25 20c-3.6 0-6.3-2.8-6.3-6.3c0-3.6 3-6.3 6.4-6.2C28.4 7.6 31.2 10.2 31.3 13.8z"/></svg>